<svg width="76" height="24" viewBox="0 0 76 24" fill="none" xmlns="http://www.w3.org/2000/svg">
<rect width="69" height="24" fill="#E93232"/>
<path d="M18.28 7.324V16H16.66V12.208H12.586V16H10.966V7.324H12.586V11.056H16.66V7.324H18.28ZM22.5146 9.748C22.9706 9.748 23.3846 9.822 23.7566 9.97C24.1326 10.118 24.4526 10.328 24.7166 10.6C24.9846 10.872 25.1906 11.204 25.3346 11.596C25.4786 11.988 25.5506 12.426 25.5506 12.91C25.5506 13.398 25.4786 13.838 25.3346 14.23C25.1906 14.622 24.9846 14.956 24.7166 15.232C24.4526 15.508 24.1326 15.72 23.7566 15.868C23.3846 16.016 22.9706 16.09 22.5146 16.09C22.0546 16.09 21.6366 16.016 21.2606 15.868C20.8846 15.72 20.5626 15.508 20.2946 15.232C20.0306 14.956 19.8246 14.622 19.6766 14.23C19.5326 13.838 19.4606 13.398 19.4606 12.91C19.4606 12.426 19.5326 11.988 19.6766 11.596C19.8246 11.204 20.0306 10.872 20.2946 10.6C20.5626 10.328 20.8846 10.118 21.2606 9.97C21.6366 9.822 22.0546 9.748 22.5146 9.748ZM22.5146 14.95C23.0266 14.95 23.4046 14.778 23.6486 14.434C23.8966 14.09 24.0206 13.586 24.0206 12.922C24.0206 12.258 23.8966 11.752 23.6486 11.404C23.4046 11.056 23.0266 10.882 22.5146 10.882C21.9946 10.882 21.6086 11.058 21.3566 11.41C21.1086 11.758 20.9846 12.262 20.9846 12.922C20.9846 13.582 21.1086 14.086 21.3566 14.434C21.6086 14.778 21.9946 14.95 22.5146 14.95ZM29.1952 14.986C29.5072 14.986 29.7532 14.91 29.9332 14.758C30.1172 14.606 30.2092 14.398 30.2092 14.134C30.2092 14.022 30.1932 13.918 30.1612 13.822C30.1332 13.722 30.0812 13.636 30.0052 13.564C29.9292 13.492 29.8252 13.436 29.6932 13.396C29.5652 13.356 29.4012 13.336 29.2012 13.336H28.0912V14.986H29.1952ZM28.0912 10.81V12.424H29.0632C29.2072 12.424 29.3392 12.404 29.4592 12.364C29.5792 12.32 29.6832 12.26 29.7712 12.184C29.8592 12.104 29.9272 12.012 29.9752 11.908C30.0232 11.8 30.0472 11.682 30.0472 11.554C30.0472 11.462 30.0312 11.372 29.9992 11.284C29.9672 11.192 29.9132 11.112 29.8372 11.044C29.7612 10.972 29.6592 10.916 29.5312 10.876C29.4072 10.832 29.2512 10.81 29.0632 10.81H28.0912ZM29.1052 9.844C29.4932 9.844 29.8272 9.882 30.1072 9.958C30.3912 10.034 30.6252 10.138 30.8092 10.27C30.9932 10.402 31.1292 10.56 31.2172 10.744C31.3052 10.924 31.3492 11.12 31.3492 11.332C31.3492 11.464 31.3312 11.602 31.2952 11.746C31.2632 11.886 31.2032 12.022 31.1152 12.154C31.0312 12.286 30.9152 12.406 30.7672 12.514C30.6192 12.622 30.4312 12.706 30.2032 12.766C30.4072 12.81 30.5932 12.872 30.7612 12.952C30.9292 13.028 31.0732 13.126 31.1932 13.246C31.3132 13.362 31.4052 13.5 31.4692 13.66C31.5372 13.816 31.5712 13.992 31.5712 14.188C31.5712 14.5 31.5052 14.77 31.3732 14.998C31.2452 15.226 31.0712 15.414 30.8512 15.562C30.6352 15.71 30.3832 15.82 30.0952 15.892C29.8112 15.964 29.5132 16 29.2012 16H26.6812V9.844H29.1052ZM38.2484 9.844V16H36.7664V12.406C36.7664 12.314 36.7704 12.214 36.7784 12.106C36.7904 11.994 36.8044 11.882 36.8204 11.77C36.7404 11.954 36.6524 12.116 36.5564 12.256C36.5484 12.264 36.5084 12.32 36.4364 12.424C36.3644 12.524 36.2704 12.654 36.1544 12.814C36.0424 12.974 35.9144 13.156 35.7704 13.36C35.6264 13.56 35.4804 13.764 35.3324 13.972C34.9844 14.464 34.5904 15.02 34.1504 15.64C34.0944 15.724 34.0204 15.806 33.9284 15.886C33.8404 15.966 33.7384 16.006 33.6224 16.006H32.7164V9.85H34.1984V13.444C34.1984 13.536 34.1924 13.638 34.1804 13.75C34.1724 13.858 34.1604 13.968 34.1444 14.08C34.2324 13.884 34.3204 13.722 34.4084 13.594C34.4124 13.586 34.4504 13.532 34.5224 13.432C34.5944 13.332 34.6864 13.202 34.7984 13.042C34.9144 12.882 35.0444 12.702 35.1884 12.502C35.3324 12.298 35.4784 12.09 35.6264 11.878C35.9744 11.386 36.3704 10.83 36.8144 10.21C36.8704 10.122 36.9444 10.04 37.0364 9.964C37.1284 9.884 37.2324 9.844 37.3484 9.844H38.2484ZM45.0765 9.844V16H43.5945V13.276H41.1945V16H39.7125V9.844H41.1945V12.178H43.5945V9.844H45.0765ZM50.2225 10.234C50.2945 10.118 50.3925 10.024 50.5165 9.952C50.6405 9.88 50.7725 9.844 50.9125 9.844H52.0765L50.6425 12.13C50.5425 12.29 50.4405 12.42 50.3365 12.52C50.2325 12.616 50.1065 12.692 49.9585 12.748C50.1585 12.808 50.3225 12.898 50.4505 13.018C50.5785 13.134 50.6945 13.282 50.7985 13.462L52.2385 16H51.2125C50.9525 16 50.7505 15.956 50.6065 15.868C50.4625 15.78 50.3405 15.654 50.2405 15.49L49.3345 13.786C49.2545 13.638 49.1505 13.528 49.0225 13.456C48.8985 13.384 48.7525 13.348 48.5845 13.348H48.0265V16H46.5445V9.844H48.0265V12.382H48.5065C48.6745 12.382 48.8085 12.352 48.9085 12.292C49.0125 12.228 49.1005 12.132 49.1725 12.004L50.2225 10.234ZM56.3121 13.372C55.8841 13.392 55.5241 13.43 55.2321 13.486C54.9401 13.538 54.7061 13.606 54.5301 13.69C54.3541 13.774 54.2281 13.872 54.1521 13.984C54.0761 14.096 54.0381 14.218 54.0381 14.35C54.0381 14.61 54.1141 14.796 54.2661 14.908C54.4221 15.02 54.6241 15.076 54.8721 15.076C55.1761 15.076 55.4381 15.022 55.6581 14.914C55.8821 14.802 56.1001 14.634 56.3121 14.41V13.372ZM52.9161 10.702C53.6241 10.054 54.4761 9.73 55.4721 9.73C55.8321 9.73 56.1541 9.79 56.4381 9.91C56.7221 10.026 56.9621 10.19 57.1581 10.402C57.3541 10.61 57.5021 10.86 57.6021 11.152C57.7061 11.444 57.7581 11.764 57.7581 12.112V16H57.0861C56.9461 16 56.8381 15.98 56.7621 15.94C56.6861 15.896 56.6261 15.81 56.5821 15.682L56.4501 15.238C56.2941 15.378 56.1421 15.502 55.9941 15.61C55.8461 15.714 55.6921 15.802 55.5321 15.874C55.3721 15.946 55.2001 16 55.0161 16.036C54.8361 16.076 54.6361 16.096 54.4161 16.096C54.1561 16.096 53.9161 16.062 53.6961 15.994C53.4761 15.922 53.2861 15.816 53.1261 15.676C52.9661 15.536 52.8421 15.362 52.7541 15.154C52.6661 14.946 52.6221 14.704 52.6221 14.428C52.6221 14.272 52.6481 14.118 52.7001 13.966C52.7521 13.81 52.8361 13.662 52.9521 13.522C53.0721 13.382 53.2261 13.25 53.4141 13.126C53.6021 13.002 53.8321 12.894 54.1041 12.802C54.3801 12.71 54.7001 12.636 55.0641 12.58C55.4281 12.52 55.8441 12.484 56.3121 12.472V12.112C56.3121 11.7 56.2241 11.396 56.0481 11.2C55.8721 11 55.6181 10.9 55.2861 10.9C55.0461 10.9 54.8461 10.928 54.6861 10.984C54.5301 11.04 54.3921 11.104 54.2721 11.176C54.1521 11.244 54.0421 11.306 53.9421 11.362C53.8461 11.418 53.7381 11.446 53.6181 11.446C53.5141 11.446 53.4261 11.42 53.3541 11.368C53.2821 11.312 53.2241 11.248 53.1801 11.176L52.9161 10.702Z" fill="white"/>
<path d="M76 0L69 24V0H76Z" fill="#E93232"/>
</svg>
