<svg width="29" height="29" viewBox="0 0 29 29" fill="none" xmlns="http://www.w3.org/2000/svg">
<path d="M17.5832 6.51957C18.7912 6.7548 19.9014 7.34445 20.7716 8.21306C21.6419 9.08167 22.2327 10.1897 22.4684 11.3954M17.5832 1.58203C20.0929 1.86031 22.4332 2.98204 24.2199 4.76305C26.0066 6.54406 27.1334 8.87849 27.4154 11.383M26.1786 21.2334V24.9366C26.18 25.2804 26.1095 25.6206 25.9715 25.9356C25.8335 26.2506 25.6311 26.5334 25.3773 26.7658C25.1235 26.9982 24.8239 27.1751 24.4976 27.2852C24.1713 27.3954 23.8255 27.4363 23.4825 27.4053C19.6768 26.9926 16.0212 25.6947 12.8094 23.6158C9.82118 21.7206 7.28771 19.192 5.38889 16.2095C3.29875 12.9892 1.99802 9.32285 1.59207 5.50737C1.56116 5.16602 1.60181 4.82199 1.71142 4.49718C1.82102 4.17237 1.99719 3.8739 2.22871 3.62077C2.46022 3.36763 2.742 3.16539 3.05612 3.0269C3.37024 2.88842 3.7098 2.81674 4.0532 2.81642H7.76344C8.36364 2.81052 8.94552 3.02265 9.4006 3.41328C9.85569 3.80391 10.1529 4.34637 10.2369 4.93956C10.3935 6.12465 10.684 7.28825 11.1027 8.40818C11.2691 8.84999 11.3051 9.33015 11.2064 9.79177C11.1078 10.2534 10.8786 10.6771 10.5461 11.0127L8.97546 12.5804C10.736 15.6707 13.2997 18.2295 16.3959 19.9867L17.9666 18.419C18.3029 18.0871 18.7274 17.8584 19.1899 17.76C19.6524 17.6615 20.1335 17.6975 20.5761 17.8636C21.6982 18.2815 22.8641 18.5713 24.0514 18.7276C24.6522 18.8122 25.2008 19.1142 25.5931 19.5763C25.9853 20.0383 26.1937 20.6281 26.1786 21.2334Z" stroke="white" stroke-width="1.5" stroke-linecap="round" stroke-linejoin="round"/>
</svg>
